<?xml version="1.0" encoding="UTF-8"?>
<svg version="1.1" xmlns="http://www.w3.org/2000/svg" width="1200" height="1200">
<path d="M0 0 C396 0 792 0 1200 0 C1200 396 1200 792 1200 1200 C804 1200 408 1200 0 1200 C0 804 0 408 0 0 Z " fill="#0B0B0A" transform="translate(0,0)"/>
<path d="M0 0 C0.495 0.99 0.495 0.99 1 2 C3.64 1.67 6.28 1.34 9 1 C7.9375 2.9375 7.9375 2.9375 6 5 C2.375 5.6875 2.375 5.6875 -1 6 C-1.33 6.33 -1.66 6.66 -2 7 C0.64 7.33 3.28 7.66 6 8 C6 8.33 6 8.66 6 9 C5.4406778 9.00808685 4.88135559 9.01617371 4.30508423 9.02450562 C-1.50225045 9.11038349 -7.30923715 9.2098789 -13.11621094 9.31738281 C-15.28509693 9.35572991 -17.45404777 9.39057255 -19.62304688 9.421875 C-22.73591332 9.46740138 -25.84833106 9.52541573 -28.9609375 9.5859375 C-29.934935 9.59748871 -30.9089325 9.60903992 -31.91244507 9.62094116 C-32.81322784 9.64081085 -33.71401062 9.66068054 -34.64208984 9.68115234 C-35.83455826 9.70113785 -35.83455826 9.70113785 -37.05111694 9.7215271 C-39.23465372 9.83467008 -39.23465372 9.83467008 -41 12 C-40.938125 12.928125 -40.87625 13.85625 -40.8125 14.8125 C-41 18 -41 18 -43.25 20.875 C-46 23 -46 23 -50 23 C-49.34 23.99 -48.68 24.98 -48 26 C-53.29230769 28.21538462 -53.29230769 28.21538462 -56.875 27.125 C-57.57625 26.75375 -58.2775 26.3825 -59 26 C-57 24 -57 24 -54 23 C-56.97793335 23.42541905 -58.92530835 23.95331772 -61.5 25.5625 C-64.32666471 27.18783221 -65.80456887 27.16818059 -69 27 C-69.99 27.33 -70.98 27.66 -72 28 C-74.1875 27.0625 -74.1875 27.0625 -76 26 C-76.45375 26.66 -76.9075 27.32 -77.375 28 C-77.91125 28.66 -78.4475 29.32 -79 30 C-81.15634036 30 -82.92446352 29.5534764 -85 29 C-83.625 27.5 -83.625 27.5 -82 26 C-81.34 26 -80.68 26 -80 26 C-79.67 22.37 -79.34 18.74 -79 15 C-80.98 15.33 -82.96 15.66 -85 16 C-84.34 14.35 -83.68 12.7 -83 11 C-75.78428111 9.98250732 -68.61471931 9.6638587 -61.33789062 9.39453125 C-60.43619141 9.35714844 -59.53449219 9.31976563 -58.60546875 9.28125 C-57.79231201 9.25095703 -56.97915527 9.22066406 -56.14135742 9.18945312 C-53.8149053 9.06685216 -53.8149053 9.06685216 -51 8 C-49.45029552 7.91312201 -47.89710293 7.8823134 -46.3449707 7.88647461 C-45.40422195 7.88655014 -44.46347321 7.88662567 -43.49421692 7.88670349 C-42.48163315 7.89186478 -41.46904938 7.89702606 -40.42578125 7.90234375 C-39.38681198 7.9037587 -38.34784271 7.90517365 -37.27738953 7.90663147 C-33.95573052 7.91223344 -30.63413867 7.92478628 -27.3125 7.9375 C-25.06184993 7.94251475 -22.81119881 7.9470777 -20.56054688 7.95117188 C-15.04034163 7.96220351 -9.52017561 7.97894357 -4 8 C-3.53980469 7.07960938 -3.53980469 7.07960938 -3.0703125 6.140625 C-2.046875 4.09375 -1.0234375 2.046875 0 0 Z " fill="#242523" transform="translate(640,302)"/>
<path d="M0 0 C0 1.65 0 3.3 0 5 C-0.66 5 -1.32 5 -2 5 C-2.2475 5.66 -2.495 6.32 -2.75 7 C-3.95921889 9.90212534 -5.31180076 12.69731643 -6.734375 15.5 C-8.01377 18.0272 -9.27072461 20.56505875 -10.52709961 23.10375977 C-18.79943838 39.76601144 -18.79943838 39.76601144 -25 47 C-25.33 47.99 -25.66 48.98 -26 50 C-26.66 50 -27.32 50 -28 50 C-28 50.66 -28 51.32 -28 52 C-28.66 52 -29.32 52 -30 52 C-30.33 53.32 -30.66 54.64 -31 56 C-31.66 56 -32.32 56 -33 56 C-33.33 56.99 -33.66 57.98 -34 59 C-37.3 59 -40.6 59 -44 59 C-42 55 -42 55 -40 52.125 C-38.06637651 49.10371329 -36.98060728 46.43212548 -36 43 C-35.34 43 -34.68 43 -34 43 C-33.938125 42.29875 -33.87625 41.5975 -33.8125 40.875 C-32.73451061 37.06057602 -30.59353941 34.96404504 -28 32 C-27.525625 31.13375 -27.05125 30.2675 -26.5625 29.375 C-24.89700173 26.84344263 -23.27457726 25.9060203 -20.7421875 24.34375 C-14.65952523 19.65218986 -10.60896794 12.61259895 -7.08984375 5.91796875 C-5.38741144 2.92193197 -3.64662437 0 0 0 Z " fill="#252524" transform="translate(382,1141)"/>
<path d="M0 0 C0.71650322 9.99266094 1.11214605 19.90822096 0.96289062 29.92895508 C0.79291644 34.09599246 0.79291644 34.09599246 2 38 C2.33 37.34 2.66 36.68 3 36 C3.99 36 4.98 36 6 36 C5.125 42.75 5.125 42.75 4 45 C5.65 45 7.3 45 9 45 C9 45.33 9 45.66 9 46 C7.02 46 5.04 46 3 46 C3.33 47.98 3.66 49.96 4 52 C3.01 52 2.02 52 1 52 C1.165 52.845625 1.33 53.69125 1.5 54.5625 C2.01329288 58.09138856 2.07121346 61.43932689 2 65 C2.66 64.01 3.32 63.02 4 62 C7.0390625 61.70703125 7.0390625 61.70703125 10.625 61.8125 C11.81351563 61.83957031 13.00203125 61.86664063 14.2265625 61.89453125 C15.14179687 61.92933594 16.05703125 61.96414062 17 62 C17 62.33 17 62.66 17 63 C11.06 63.495 11.06 63.495 5 64 C5.33 64.99 5.66 65.98 6 67 C5.5625 69.1875 5.5625 69.1875 5 71 C4.34 71 3.68 71 3 71 C3.11409593 72.45922693 3.24165544 73.91740598 3.375 75.375 C3.44460938 76.18710938 3.51421875 76.99921875 3.5859375 77.8359375 C3.82892588 80.20334191 3.82892588 80.20334191 6 82 C5.67 82.99 5.34 83.98 5 85 C4.34 85 3.68 85 3 85 C3.48578543 88.12290635 3.9986012 90.99580359 5 94 C4.34 94 3.68 94 3 94 C3.66264086 100.06264222 3.66264086 100.06264222 5 106 C3.515 106.99 3.515 106.99 2 108 C1.95101562 106.94039063 1.90203125 105.88078125 1.8515625 104.7890625 C1.77653291 103.40101503 1.70098515 102.01299549 1.625 100.625 C1.5940625 99.92632812 1.563125 99.22765625 1.53125 98.5078125 C1.40500502 94.29814173 1.40500502 94.29814173 -1 91 C-0.505 90.01 -0.505 90.01 0 89 C-0.67546875 89.02320313 -1.3509375 89.04640625 -2.046875 89.0703125 C-2.93890625 89.08835937 -3.8309375 89.10640625 -4.75 89.125 C-5.63171875 89.14820313 -6.5134375 89.17140625 -7.421875 89.1953125 C-10 89 -10 89 -14 87 C-7.07 87.495 -7.07 87.495 0 88 C0.0309375 84.844375 0.0309375 84.844375 0.0625 81.625 C0.07410156 80.44164062 0.08570313 79.25828125 0.09765625 78.0390625 C0.21466593 75.08078479 0.21466593 75.08078479 -1 73 C-0.505 72.01 -0.505 72.01 0 71 C-2.64 71 -5.28 71 -8 71 C-8.33 70.34 -8.66 69.68 -9 69 C-6.69 69.33 -4.38 69.66 -2 70 C-2.495 67.525 -2.495 67.525 -3 65 C-2.34 65 -1.68 65 -1 65 C-1.165 64.360625 -1.33 63.72125 -1.5 63.0625 C-2.15932515 59.02413348 -2.08003779 55.08192742 -2 51 C-2.99 51 -3.98 51 -5 51 C-4.34 49.35 -3.68 47.7 -3 46 C-2.34 46 -1.68 46 -1 46 C-1.13972568 41.81227299 -1.28787081 37.62488393 -1.4375 33.4375 C-1.47681641 32.25607422 -1.51613281 31.07464844 -1.55664062 29.85742188 C-1.76413101 24.15941658 -2.13652174 18.64139131 -3 13 C-3.0633117 10.85499969 -3.0866101 8.70829902 -3.0625 6.5625 C-3.05347656 5.51191406 -3.04445313 4.46132812 -3.03515625 3.37890625 C-3.02355469 2.59386719 -3.01195312 1.80882813 -3 1 C-1 0 -1 0 0 0 Z M-4 92 C-3.34 92.66 -2.68 93.32 -2 94 C-6.53701494 95.45184478 -10.18061476 96.23509196 -15 96 C-15 95.67 -15 95.34 -15 95 C-13.35 95 -11.7 95 -10 95 C-10 94.34 -10 93.68 -10 93 C-7.125 92.375 -7.125 92.375 -4 92 Z " fill="#161714" transform="translate(558,108)"/>
<path d="M0 0 C0 0.33 0 0.66 0 1 C-1.98 1 -3.96 1 -6 1 C-5.690625 1.721875 -5.38125 2.44375 -5.0625 3.1875 C-4 6 -4 6 -3 11 C0.96 11 4.92 11 9 11 C0.60655738 17.29508197 0.60655738 17.29508197 -5 17 C-5.99 17.33 -6.98 17.66 -8 18 C-10.1875 17.0625 -10.1875 17.0625 -12 16 C-12.45375 16.66 -12.9075 17.32 -13.375 18 C-13.91125 18.66 -14.4475 19.32 -15 20 C-17.15634036 20 -18.92446352 19.5534764 -21 19 C-19.625 17.5 -19.625 17.5 -18 16 C-17.34 16 -16.68 16 -16 16 C-15.67 12.37 -15.34 8.74 -15 5 C-16.98 5.33 -18.96 5.66 -21 6 C-20.34 4.35 -19.68 2.7 -19 1 C-12.62641289 0.03794912 -6.44070471 -0.10655578 0 0 Z " fill="#171816" transform="translate(576,312)"/>
<path d="M0 0 C0.66 0 1.32 0 2 0 C2 0.66 2 1.32 2 2 C2.66 2 3.32 2 4 2 C4 2.66 4 3.32 4 4 C5.98 2.68 7.96 1.36 10 0 C10 0.66 10 1.32 10 2 C10.66 2 11.32 2 12 2 C12 2.66 12 3.32 12 4 C15.3 3.01 18.6 2.02 22 1 C22.66 1.66 23.32 2.32 24 3 C24.33 2.34 24.66 1.68 25 1 C25.66 1.33 26.32 1.66 27 2 C27 3.32 27 4.64 27 6 C28.32 6.33 29.64 6.66 31 7 C24.07044201 8.02660118 17.28548382 8.07138851 10.29736328 7.96289062 C9.54310059 7.95451172 8.78883789 7.94613281 8.01171875 7.9375 C7.33584717 7.92589844 6.65997559 7.91429687 5.96362305 7.90234375 C3.95043071 7.93384574 3.95043071 7.93384574 1.87426758 8.56640625 C0 9 0 9 -2 8 C-2 7.34 -2 6.68 -2 6 C-6.571279 6.54855348 -10.67435795 7.41744803 -15 9 C-15.33 8.67 -15.66 8.34 -16 8 C-18.63415718 7.92633789 -21.2417495 7.90773282 -23.875 7.9375 C-24.97521484 7.94426758 -24.97521484 7.94426758 -26.09765625 7.95117188 C-28.06513151 7.96371498 -30.03257086 7.9815937 -32 8 C-32.99 8 -33.98 8 -35 8 C-33 6 -33 6 -29.5234375 5.8046875 C-28.14049032 5.81798507 -26.75761346 5.84183768 -25.375 5.875 C-24.66859375 5.88402344 -23.9621875 5.89304687 -23.234375 5.90234375 C-21.48943902 5.92592397 -19.74467705 5.96179539 -18 6 C-18 5.34 -18 4.68 -18 4 C-18.66 3.67 -19.32 3.34 -20 3 C-14.26944418 1.47185178 -7.64409459 1.11863514 -2 3 C-1.34 2.01 -0.68 1.02 0 0 Z " fill="#131411" transform="translate(630,319)"/>
<path d="M0 0 C0 1.66666667 0 3.33333333 0 5 C0.66 4.34 1.32 3.68 2 3 C2.99 3.66 3.98 4.32 5 5 C5.99 5 6.98 5 8 5 C8.33 4.01 8.66 3.02 9 2 C9.66 2 10.32 2 11 2 C11 1.34 11 0.68 11 0 C11.66 0 12.32 0 13 0 C12.49954354 4.3372893 9.74057577 6.77982347 7 10 C6.67 10.99 6.34 11.98 6 13 C5.34 13 4.68 13 4 13 C4 13.66 4 14.32 4 15 C3.34 15 2.68 15 2 15 C1.67 16.32 1.34 17.64 1 19 C0.34 19 -0.32 19 -1 19 C-1.33 19.99 -1.66 20.98 -2 22 C-5.3 22 -8.6 22 -12 22 C-10 18 -10 18 -8 15.125 C-6.06637651 12.10371329 -4.98060728 9.43212548 -4 6 C-3.34 6 -2.68 6 -2 6 C-1.855625 5.195625 -1.71125 4.39125 -1.5625 3.5625 C-1 1 -1 1 0 0 Z " fill="#23231E" transform="translate(350,1178)"/>
<path d="M0 0 C0.71650322 9.99266094 1.11214605 19.90822096 0.96289062 29.92895508 C0.79291644 34.09599246 0.79291644 34.09599246 2 38 C2.33 37.34 2.66 36.68 3 36 C3.99 36 4.98 36 6 36 C5.125 42.75 5.125 42.75 4 45 C5.65 45 7.3 45 9 45 C9 45.33 9 45.66 9 46 C7.02 46 5.04 46 3 46 C3.33 47.98 3.66 49.96 4 52 C3.01 52 2.02 52 1 52 C1.20625 52.845625 1.4125 53.69125 1.625 54.5625 C2.05843012 58.53560946 1.2762763 61.24624618 0 65 C-0.66 64.67 -1.32 64.34 -2 64 C-2 59.71 -2 55.42 -2 51 C-2.99 51 -3.98 51 -5 51 C-4.34 49.35 -3.68 47.7 -3 46 C-2.34 46 -1.68 46 -1 46 C-1.13972568 41.81227299 -1.28787081 37.62488393 -1.4375 33.4375 C-1.47681641 32.25607422 -1.51613281 31.07464844 -1.55664062 29.85742188 C-1.76413101 24.15941658 -2.13652174 18.64139131 -3 13 C-3.0633117 10.85499969 -3.0866101 8.70829902 -3.0625 6.5625 C-3.05347656 5.51191406 -3.04445313 4.46132812 -3.03515625 3.37890625 C-3.02355469 2.59386719 -3.01195312 1.80882813 -3 1 C-1 0 -1 0 0 0 Z " fill="#1C1E1A" transform="translate(558,108)"/>
<path d="M0 0 C1.77007714 -0.08114106 3.54122098 -0.13925505 5.3125 -0.1875 C6.29863281 -0.22230469 7.28476562 -0.25710937 8.30078125 -0.29296875 C11.40782889 0.04426508 12.07363064 0.64686573 14 3 C14.66 3.33 15.32 3.66 16 4 C16 4.66 16 5.32 16 6 C16.56203125 6.11214844 17.1240625 6.22429688 17.703125 6.33984375 C20.31513108 7.09057339 22.39471322 8.21167376 24.75 9.5625 C25.54921875 10.01753906 26.3484375 10.47257813 27.171875 10.94140625 C27.77515625 11.29074219 28.3784375 11.64007813 29 12 C29 12.66 29 13.32 29 14 C29.99 14 30.98 14 32 14 C32 14.66 32 15.32 32 16 C32.5775 16.268125 33.155 16.53625 33.75 16.8125 C36.05550043 18.02929189 38.02056192 19.30333879 40 21 C40 21.66 40 22.32 40 23 C41.0209375 23.309375 41.0209375 23.309375 42.0625 23.625 C45.97009851 25.45408866 48.83857939 28.10279034 52 31 C51.01 31.495 51.01 31.495 50 32 C46.76643985 30.78741495 45.99143695 29.98715542 44 27 C43.34 27.66 42.68 28.32 42 29 C39.78827665 26.9408093 38.11603159 25.2225697 36.7109375 22.52734375 C34.61218391 19.42713012 32.87079914 18.6580641 29.4375 17.25 C28.46683594 16.84265625 27.49617187 16.4353125 26.49609375 16.015625 C25.67238281 15.68046875 24.84867188 15.3453125 24 15 C23.34 14.67 22.68 14.34 22 14 C22 13.34 22 12.68 22 12 C21.236875 11.79375 20.47375 11.5875 19.6875 11.375 C14.50101406 9.44105609 9.80966916 6.7214854 5 4 C5 3.34 5 2.68 5 2 C3.35 1.67 1.7 1.34 0 1 C0 0.67 0 0.34 0 0 Z " fill="#2A2D28" transform="translate(576,0)"/>
<path d="M0 0 C0.66 0.33 1.32 0.66 2 1 C1.505 1.433125 1.01 1.86625 0.5 2.3125 C-1.33218192 3.99740483 -1.33218192 3.99740483 -1 7 C-1.62648438 7.26554687 -2.25296875 7.53109375 -2.8984375 7.8046875 C-3.71570313 8.15789063 -4.53296875 8.51109375 -5.375 8.875 C-6.18710937 9.22304688 -6.99921875 9.57109375 -7.8359375 9.9296875 C-10.13802299 10.92446067 -10.13802299 10.92446067 -12 13 C-12.99 13.33 -13.98 13.66 -15 14 C-15.66 14.66 -16.32 15.32 -17 16 C-17.5775 16.12375 -18.155 16.2475 -18.75 16.375 C-25.43511828 18.2319773 -30.19268658 23.94972132 -34.875 28.75 C-35.56335938 29.44738281 -36.25171875 30.14476563 -36.9609375 30.86328125 C-38.64529582 32.57103343 -40.32477617 34.28329443 -42 36 C-42 32.51645795 -41.54964842 32.11572947 -39.3125 29.625 C-38.75820313 29.00753906 -38.20390625 28.39007813 -37.6328125 27.75390625 C-35.47376746 25.43474065 -33.29433438 23.18762115 -31 21 C-30.0869812 20.12190674 -30.0869812 20.12190674 -29.15551758 19.22607422 C-23.54553968 14.0155724 -17.7108388 10.20887885 -11 6.5625 C-9.12441631 5.52318807 -7.24938443 4.48287948 -5.375 3.44140625 C-4.55773437 2.99482666 -3.74046875 2.54824707 -2.8984375 2.08813477 C-1.05338574 1.14066868 -1.05338574 1.14066868 0 0 Z " fill="#292B27" transform="translate(520,16)"/>
<path d="M0 0 C2 1 2 1 2 1 Z M3 0 C3.66 0.33 4.32 0.66 5 1 C4.67 2.32 4.34 3.64 4 5 C3.443125 5.12375 2.88625 5.2475 2.3125 5.375 C-0.09217019 5.95494637 -0.09217019 5.95494637 -2.5625 7.1875 C-3.366875 7.455625 -4.17125 7.72375 -5 8 C-5.99 7.34 -6.98 6.68 -8 6 C-7.67 7.65 -7.34 9.3 -7 11 C-10.28519475 12.09506492 -12.73663415 12.09960608 -16.1875 12.0625 C-17.81751953 12.04896484 -17.81751953 12.04896484 -19.48046875 12.03515625 C-20.31191406 12.02355469 -21.14335938 12.01195312 -22 12 C-21.34 11.67 -20.68 11.34 -20 11 C-20 10.34 -20 9.68 -20 9 C-21.65 8.67 -23.3 8.34 -25 8 C-23.4609375 6.00390625 -23.4609375 6.00390625 -21 4 C-17.5390625 3.71484375 -17.5390625 3.71484375 -13.625 3.9375 C-8.0259135 4.24606689 -4.8827389 3.77264672 0 1 C0.66 1 1.32 1 2 1 C2.33 0.67 2.66 0.34 3 0 Z " fill="#43463F" transform="translate(586,17)"/>
<path d="M0 0 C2.31 0 4.62 0 7 0 C8.3984433 2.79688661 8.42264801 5.39056884 8.6875 8.5 C8.79449219 9.6653125 8.90148437 10.830625 9.01171875 12.03125 C9 15 9 15 7 17 C3.875 17.125 3.875 17.125 1 17 C1 15.35 1 13.7 1 12 C1.66 12 2.32 12 3 12 C3 11.34 3 10.68 3 10 C2.34 10 1.68 10 1 10 C-0.80411967 7.24075815 -1.0127245 6.11027897 -0.625 2.75 C-0.41875 1.8425 -0.2125 0.935 0 0 Z " fill="#232422" transform="translate(577,866)"/>
<path d="M0 0 C0.66 0 1.32 0 2 0 C2.33 1.32 2.66 2.64 3 4 C5.97 4.495 5.97 4.495 9 5 C9.33 5.99 9.66 6.98 10 8 C9 9 9 9 5.9375 9.0625 C4.968125 9.041875 3.99875 9.02125 3 9 C2.67 10.32 2.34 11.64 2 13 C3.32 13.33 4.64 13.66 6 14 C5.01 15.485 5.01 15.485 4 17 C6.31 17.33 8.62 17.66 11 18 C10.67 18.66 10.34 19.32 10 20 C9.34 20 8.68 20 8 20 C7.67 20.66 7.34 21.32 7 22 C5.35 21.67 3.7 21.34 2 21 C1.67 22.65 1.34 24.3 1 26 C0.67 26 0.34 26 0 26 C-0.84831606 17.17751293 -1.04865737 8.80872193 0 0 Z " fill="#151714" transform="translate(561,240)"/>
<path d="M0 0 C2.875 -0.125 2.875 -0.125 6 0 C6.66 0.66 7.32 1.32 8 2 C6.35 2.33 4.7 2.66 3 3 C3 3.99 3 4.98 3 6 C4.98 6 6.96 6 9 6 C7.68 6.33 6.36 6.66 5 7 C5 7.66 5 8.32 5 9 C7.31 9.33 9.62 9.66 12 10 C11.67 10.66 11.34 11.32 11 12 C9.824375 11.9071875 9.824375 11.9071875 8.625 11.8125 C7.325625 11.9053125 7.325625 11.9053125 6 12 C5.01 13.485 5.01 13.485 4 15 C9.22745859 16.2063366 13.76528314 15.75612577 19 15 C16.52647979 17.47352021 15.47870976 17.32672635 12.0625 17.5625 C9.08928853 17.77706165 6.84941926 18.05019358 4 19 C1.875 18.5 1.875 18.5 0 17 C-1.54709363 11.2876543 -0.75952301 5.80742982 0 0 Z " fill="#161816" transform="translate(561,268)"/>
<path d="M0 0 C0.66 0 1.32 0 2 0 C2 0.66 2 1.32 2 2 C2.66 2 3.32 2 4 2 C3.67 2.66 3.34 3.32 3 4 C0.48828125 4.78125 0.48828125 4.78125 -2.6875 5.5 C-6.87737369 6.48379632 -10.94616897 7.53611657 -15 9 C-15.33 8.67 -15.66 8.34 -16 8 C-18.63415718 7.92633789 -21.2417495 7.90773282 -23.875 7.9375 C-24.97521484 7.94426758 -24.97521484 7.94426758 -26.09765625 7.95117188 C-28.06513151 7.96371498 -30.03257086 7.9815937 -32 8 C-32.99 8 -33.98 8 -35 8 C-33 6 -33 6 -29.5234375 5.8046875 C-28.14049032 5.81798507 -26.75761346 5.84183768 -25.375 5.875 C-24.66859375 5.88402344 -23.9621875 5.89304687 -23.234375 5.90234375 C-21.48943902 5.92592397 -19.74467705 5.96179539 -18 6 C-18 5.34 -18 4.68 -18 4 C-18.66 3.67 -19.32 3.34 -20 3 C-14.26944418 1.47185178 -7.64409459 1.11863514 -2 3 C-1.34 2.01 -0.68 1.02 0 0 Z " fill="#141512" transform="translate(630,319)"/>
<path d="M0 0 C1.2065625 0.0309375 1.2065625 0.0309375 2.4375 0.0625 C2.79608439 3.91728218 2.7129818 5.64009458 0.5625 8.9375 C-0.13875 9.63875 -0.84 10.34 -1.5625 11.0625 C-2.2225 11.0625 -2.8825 11.0625 -3.5625 11.0625 C-3.5625 12.3825 -3.5625 13.7025 -3.5625 15.0625 C-4.8825 15.3925 -6.2025 15.7225 -7.5625 16.0625 C-7.5625 15.4025 -7.5625 14.7425 -7.5625 14.0625 C-8.2225 14.0625 -8.8825 14.0625 -9.5625 14.0625 C-8.9025 12.0825 -8.2425 10.1025 -7.5625 8.0625 C-6.9025 8.0625 -6.2425 8.0625 -5.5625 8.0625 C-5.253125 6.928125 -4.94375 5.79375 -4.625 4.625 C-3.26939655 0.07974138 -3.26939655 0.07974138 0 0 Z " fill="#45484A" transform="translate(361.5625,1167.9375)"/>
<path d="M0 0 C4.95 0 9.9 0 15 0 C11.35505997 2.42996002 8.64312036 4.12078416 4.18359375 3.79296875 C0.02970325 4.06309905 -1.50308314 5.49209854 -4.625 8.1875 C-5.54539062 8.96480469 -6.46578125 9.74210938 -7.4140625 10.54296875 C-9.87751669 12.88362235 -11.95218716 15.29361824 -14 18 C-14.66 17.67 -15.32 17.34 -16 17 C-15.34 16.34 -14.68 15.68 -14 15 C-14 14.01 -14 13.02 -14 12 C-12.68 11.34 -11.36 10.68 -10 10 C-10 9.01 -10 8.02 -10 7 C-9.01 7 -8.02 7 -7 7 C-7 6.34 -7 5.68 -7 5 C-5.68 5 -4.36 5 -3 5 C-3 4.34 -3 3.68 -3 3 C-2.01 2.34 -1.02 1.68 0 1 C0 0.67 0 0.34 0 0 Z " fill="#1D211D" transform="translate(540,0)"/>
<path d="M0 0 C0.66 0 1.32 0 2 0 C4.1875 2.3125 4.1875 2.3125 6 5 C5.67 5.99 5.34 6.98 5 8 C6.32 8.66 7.64 9.32 9 10 C4.66831683 10.26252625 1.1196377 9.29243536 -3 8 C-3.33 8.66 -3.66 9.32 -4 10 C-5.5 8.625 -5.5 8.625 -7 7 C-7 6.34 -7 5.68 -7 5 C-7.66 4.67 -8.32 4.34 -9 4 C-8.38125 3.87625 -7.7625 3.7525 -7.125 3.625 C-4.80879168 3.12802644 -4.80879168 3.12802644 -3 1 C-2.34 1 -1.68 1 -1 1 C-0.67 0.67 -0.34 0.34 0 0 Z " fill="#101010" transform="translate(513,326)"/>
<path d="M0 0 C0.495 0.99 0.495 0.99 1 2 C3.64 1.67 6.28 1.34 9 1 C7.9375 2.9375 7.9375 2.9375 6 5 C2.375 5.6875 2.375 5.6875 -1 6 C-1.33 6.33 -1.66 6.66 -2 7 C0.64 7.33 3.28 7.66 6 8 C6 8.33 6 8.66 6 9 C-9.84 9 -25.68 9 -42 9 C-42 8.67 -42 8.34 -42 8 C-29.46 8 -16.92 8 -4 8 C-3.34 6.68 -2.68 5.36 -2 4 C-1.33333333 2.66666667 -0.66666667 1.33333333 0 0 Z " fill="#1B1C1A" transform="translate(640,302)"/>
<path d="M0 0 C1.32 0.33 2.64 0.66 4 1 C4 1.66 4 2.32 4 3 C4.99 3 5.98 3 7 3 C7 3.66 7 4.32 7 5 C7.5775 5.268125 8.155 5.53625 8.75 5.8125 C11.05550043 7.02929189 13.02056192 8.30333879 15 10 C15 10.66 15 11.32 15 12 C15.680625 12.20625 16.36125 12.4125 17.0625 12.625 C20.97009851 14.45408866 23.83857939 17.10279034 27 20 C26.34 20.33 25.68 20.66 25 21 C21.76643985 19.78741495 20.99143695 18.98715542 19 16 C18.34 16.66 17.68 17.32 17 18 C14.75082672 15.90594212 13.0974211 14.1902031 11.6875 11.4375 C10.09810418 8.66923167 10.09810418 8.66923167 6.5 7.5625 C3 6 3 6 1.0625 2.8125 C0.711875 1.884375 0.36125 0.95625 0 0 Z " fill="#20231E" transform="translate(601,11)"/>
<path d="M0 0 C-0.7734375 0.3403125 -0.7734375 0.3403125 -1.5625 0.6875 C-4.38962463 2.20979788 -6.8556592 4.04379494 -9.4140625 5.9765625 C-11 7 -11 7 -13 7 C-13 7.66 -13 8.32 -13 9 C-16.29113497 12.29113497 -19.49656786 12.51748941 -24 13 C-25.33917261 13.30903983 -26.67653254 13.62942911 -28 14 C-28.33 13.01 -28.66 12.02 -29 11 C-27.37681021 10.63762737 -25.7513642 10.28534843 -24.125 9.9375 C-23.22007812 9.74027344 -22.31515625 9.54304688 -21.3828125 9.33984375 C-19 9 -19 9 -17 10 C-16.91492188 9.38382812 -16.82984375 8.76765625 -16.7421875 8.1328125 C-16 6 -16 6 -14.2578125 4.8046875 C-13.55398438 4.49789063 -12.85015625 4.19109375 -12.125 3.875 C-3.07411835 -0.16616856 -3.07411835 -0.16616856 0 0 Z " fill="#181A17" transform="translate(621,333)"/>
<path d="M0 0 C3.96 0 7.92 0 12 0 C12 0.66 12 1.32 12 2 C12.66 2 13.32 2 14 2 C13.67 2.66 13.34 3.32 13 4 C11.09628174 4.26718853 9.19028272 4.52458761 7.27734375 4.71484375 C3.75821681 5.15548915 0.42315331 6.08308393 -3 7 C-3 5.68 -3 4.36 -3 3 C-2.34 3 -1.68 3 -1 3 C-0.67 2.01 -0.34 1.02 0 0 Z " fill="#393B36" transform="translate(560,0)"/>
<path d="M0 0 C2 1 2 1 2 1 Z M3 0 C3.66 0.33 4.32 0.66 5 1 C4.67 2.32 4.34 3.64 4 5 C3.443125 5.12375 2.88625 5.2475 2.3125 5.375 C-0.22114364 6.05976855 -2.57921032 6.99133763 -5 8 C-5.33 7.67 -5.66 7.34 -6 7 C-8.85877909 6.76298761 -11.69883297 6.57780818 -14.5625 6.4375 C-15.36880859 6.39431641 -16.17511719 6.35113281 -17.00585938 6.30664062 C-19.00368805 6.20024738 -21.0018207 6.09959112 -23 6 C-21 4 -21 4 -17.734375 3.91015625 C-15.08842534 4.01132491 -12.44258766 4.11546829 -9.796875 4.22265625 C-5.74095159 3.98480889 -3.49374292 2.97944311 0 1 C0.66 1 1.32 1 2 1 C2.33 0.67 2.66 0.34 3 0 Z " fill="#363933" transform="translate(586,17)"/>
<path d="M0 0 C0.66 0.33 1.32 0.66 2 1 C-5.26 8.26 -12.52 15.52 -20 23 C-20 19.51645795 -19.54964842 19.11572947 -17.3125 16.625 C-16.75820313 16.00753906 -16.20390625 15.39007813 -15.6328125 14.75390625 C-10.72631367 9.48352832 -5.40655308 4.74693005 0 0 Z " fill="#1E201C" transform="translate(498,29)"/>
<path d="M0 0 C2.31 0 4.62 0 7 0 C8.3984433 2.79688661 8.42264801 5.39056884 8.6875 8.5 C8.79449219 9.6653125 8.90148437 10.830625 9.01171875 12.03125 C9 15 9 15 7 17 C3.875 17.125 3.875 17.125 1 17 C1 16.67 1 16.34 1 16 C2.65 16 4.3 16 6 16 C5.91621094 15.25234375 5.83242188 14.5046875 5.74609375 13.734375 C5.59333984 12.25710938 5.59333984 12.25710938 5.4375 10.75 C5.33308594 9.77546875 5.22867188 8.8009375 5.12109375 7.796875 C5.01025532 5.2368648 5.22261908 3.41851841 6 1 C4.35 1 2.7 1 1 1 C1 2.98 1 4.96 1 7 C0.34 6.67 -0.32 6.34 -1 6 C-0.67 4.02 -0.34 2.04 0 0 Z " fill="#1B1C1A" transform="translate(577,866)"/>
<path d="M0 0 C2.31 0.33 4.62 0.66 7 1 C5.75 2.5 5.75 2.5 4 4 C2.68 4 1.36 4 0 4 C0.99 5.485 0.99 5.485 2 7 C-3.29230769 9.21538462 -3.29230769 9.21538462 -6.875 8.125 C-7.57625 7.75375 -8.2775 7.3825 -9 7 C-7 5 -7 5 -4 3 C-3.01 3 -2.02 3 -1 3 C-0.67 2.01 -0.34 1.02 0 0 Z " fill="#1A1C19" transform="translate(590,321)"/>
<path d="M0 0 C2.97 0.495 2.97 0.495 6 1 C6 1.99 6 2.98 6 4 C2.04 5.98 2.04 5.98 -2 8 C-2 7.34 -2 6.68 -2 6 C-2.928125 6.309375 -2.928125 6.309375 -3.875 6.625 C-4.57625 6.74875 -5.2775 6.8725 -6 7 C-6.66 6.34 -7.32 5.68 -8 5 C-2.25 2 -2.25 2 0 2 C0 1.34 0 0.68 0 0 Z " fill="#111310" transform="translate(669,321)"/>
<path d="M0 0 C0.66 0 1.32 0 2 0 C2.08603064 5.16183811 1.99836903 10.28329152 1.6875 15.4375 C1.62949219 16.44683594 1.57148437 17.45617187 1.51171875 18.49609375 C1 21 1 21 -2 23 C-2.3690205 7.25512528 -2.3690205 7.25512528 0 0 Z " fill="#131311" transform="translate(803,383)"/>
<path d="M0 0 C1.32 0 2.64 0 4 0 C4 0.99 4 1.98 4 3 C5.98 3.66 7.96 4.32 10 5 C10 5.33 10 5.66 10 6 C5.38 6 0.76 6 -4 6 C-2.25 3 -2.25 3 0 0 Z " fill="#121412" transform="translate(493,325)"/>
<path d="M0 0 C0.66 0.33 1.32 0.66 2 1 C2 2.32 2 3.64 2 5 C4.31 5 6.62 5 9 5 C8.67 5.66 8.34 6.32 8 7 C3.71 7 -0.58 7 -5 7 C-5.33 6.01 -5.66 5.02 -6 4 C-4.02 3.34 -2.04 2.68 0 2 C0 1.34 0 0.68 0 0 Z " fill="#10120F" transform="translate(682,321)"/>
<path d="M0 0 C3.96 0 7.92 0 12 0 C11.01 0.495 11.01 0.495 10 1 C10 1.66 10 2.32 10 3 C6.44690227 5.03034156 3.83930435 5.4087343 -0.25 4.5 C-0.8275 4.335 -1.405 4.17 -2 4 C-1.34 2.68 -0.68 1.36 0 0 Z " fill="#232422" transform="translate(557,313)"/>
<path d="M0 0 C0.24858198 2.77034137 0.47452879 5.53939069 0.6875 8.3125 C0.76033203 9.09818359 0.83316406 9.88386719 0.90820312 10.69335938 C0.96298828 11.45068359 1.01777344 12.20800781 1.07421875 12.98828125 C1.13182373 13.68477783 1.18942871 14.38127441 1.2487793 15.09887695 C0.92238821 17.59309425 -0.1101817 18.4211918 -2 20 C-3.15316726 13.65758005 -3.09507063 7.43311296 -3 1 C-1 0 -1 0 0 0 Z " fill="#20221D" transform="translate(558,108)"/>
<path d="M0 0 C0 3 0 3 0 3 Z M-5 4 C-4.01 4.33 -3.02 4.66 -2 5 C-3.40372802 6.20276695 -4.82352097 7.38680519 -6.25 8.5625 C-7.43335938 9.55443359 -7.43335938 9.55443359 -8.640625 10.56640625 C-11 12 -11 12 -13.296875 11.71484375 C-13.85890625 11.47894531 -14.4209375 11.24304688 -15 11 C-12.63266014 7.05443356 -10.34720427 6.22855773 -6 5 C-5.67 4.67 -5.34 4.34 -5 4 Z M-18 11 C-15 12 -15 12 -15 12 Z " fill="#373933" transform="translate(598,17)"/>
<path d="M0 0 C1.2065625 0.0309375 1.2065625 0.0309375 2.4375 0.0625 C2.6875 2.875 2.6875 2.875 2.4375 6.0625 C0.4375 7.9375 0.4375 7.9375 -1.5625 9.0625 C-1.5625 7.7425 -1.5625 6.4225 -1.5625 5.0625 C-2.5525 5.0625 -3.5425 5.0625 -4.5625 5.0625 C-3.43829114 0.08386076 -3.43829114 0.08386076 0 0 Z " fill="#3A3C3C" transform="translate(361.5625,1167.9375)"/>
<path d="M0 0 C0.33 0.99 0.66 1.98 1 3 C0.14405525 4.36951161 -0.72924809 5.73052192 -1.67578125 7.0390625 C-4.45300927 11.15165385 -6.66510574 15.62596474 -9 20 C-10 18 -10 18 -9.36328125 15.828125 C-7.32834719 10.83534999 -5.35366243 6.24797241 -2 2 C-1.34 2 -0.68 2 0 2 C0 1.34 0 0.68 0 0 Z " fill="#191815" transform="translate(382,1144)"/>
<path d="M0 0 C-7.08346361 3.90811785 -17.97595132 2 -26 2 C-20.74167498 -3.25832502 -6.88455832 -1.08703552 0 0 Z " fill="#1E201D" transform="translate(621,325)"/>
<path d="M0 0 C1.79244141 0.01740234 1.79244141 0.01740234 3.62109375 0.03515625 C5.41740234 0.04869141 5.41740234 0.04869141 7.25 0.0625 C8.17683594 0.07410156 9.10367188 0.08570313 10.05859375 0.09765625 C10.05859375 0.42765625 10.05859375 0.75765625 10.05859375 1.09765625 C4.11859375 1.59265625 4.11859375 1.59265625 -1.94140625 2.09765625 C-1.61140625 3.08765625 -1.28140625 4.07765625 -0.94140625 5.09765625 C-1.37890625 7.28515625 -1.37890625 7.28515625 -1.94140625 9.09765625 C-2.60140625 9.09765625 -3.26140625 9.09765625 -3.94140625 9.09765625 C-4.27140625 10.41765625 -4.60140625 11.73765625 -4.94140625 13.09765625 C-4.80107514 11.11809184 -4.65399395 9.13900484 -4.50390625 7.16015625 C-4.42269531 6.05800781 -4.34148438 4.95585937 -4.2578125 3.8203125 C-3.82861705 0.12711212 -3.82861705 0.12711212 0 0 Z " fill="#1F211E" transform="translate(564.94140625,169.90234375)"/>
<path d="M0 0 C1.65 0 3.3 0 5 0 C5 2.64 5 5.28 5 8 C3.68 8 2.36 8 1 8 C-0.35439668 5.29120665 -0.06501451 2.99066732 0 0 Z " fill="#2C2E2C" transform="translate(578,867)"/>
<path d="M0 0 C0.33 1.32 0.66 2.64 1 4 C0.34 4 -0.32 4 -1 4 C-0.938125 4.78375 -0.87625 5.5675 -0.8125 6.375 C-0.874375 7.24125 -0.93625 8.1075 -1 9 C-4 11 -4 11 -7 11 C-5.22054913 6.95579349 -2.60470327 3.53921513 0 0 Z " fill="#141410" transform="translate(347,1180)"/>
<path d="M0 0 C2.31 0 4.62 0 7 0 C6.67 1.32 6.34 2.64 6 4 C7.32 4.66 8.64 5.32 10 6 C6.43855901 6.19785783 3.95545121 6.11103658 1 4 C0.25 1.875 0.25 1.875 0 0 Z " fill="#181A17" transform="translate(512,330)"/>
<path d="M0 0 C2.96175123 0.61277612 4.38058783 1.25372522 7 3 C7 3.66 7 4.32 7 5 C7.99 5.33 8.98 5.66 10 6 C9.01 6.495 9.01 6.495 8 7 C4.4375 5.8125 4.4375 5.8125 1 4 C0.0625 1.8125 0.0625 1.8125 0 0 Z " fill="#242621" transform="translate(632,36)"/>
<path d="M0 0 C-1.125 2 -1.125 2 -3 4 C-6.1875 4.25 -6.1875 4.25 -9 4 C-9 3.34 -9 2.68 -9 2 C-9.66 1.67 -10.32 1.34 -11 1 C-7.27569643 0.30710631 -3.78916254 -0.11144596 0 0 Z " fill="#1D1F1E" transform="translate(556,329)"/>
<path d="M0 0 C0.66 0.33 1.32 0.66 2 1 C-1.08297927 4.25914951 -3.9161331 7.06553673 -8 9 C-8.99 8.67 -9.98 8.34 -11 8 C-8.83385197 5.69125289 -6.60793392 3.94709819 -3.9375 2.25 C-2.89916016 1.57710937 -2.89916016 1.57710937 -1.83984375 0.890625 C-1.23269531 0.59671875 -0.62554688 0.3028125 0 0 Z " fill="#1E201C" transform="translate(520,16)"/>
<path d="M0 0 C3.73487777 0.4979837 5.81237635 0.87491756 9 3 C9 3.66 9 4.32 9 5 C5.87709365 4.51421457 3.00419641 4.0013988 0 3 C0 2.01 0 1.02 0 0 Z " fill="#191B18" transform="translate(536,231)"/>
<path d="M0 0 C0.33 0.66 0.66 1.32 1 2 C1.99 2.33 2.98 2.66 4 3 C4 4.32 4 5.64 4 7 C2.68 7.33 1.36 7.66 0 8 C0 7.34 0 6.68 0 6 C-0.66 6 -1.32 6 -2 6 C-1.34 4.02 -0.68 2.04 0 0 Z " fill="#3E3F40" transform="translate(354,1176)"/>
<path d="M0 0 C-0.375 1.9375 -0.375 1.9375 -1 4 C-1.99 4.495 -1.99 4.495 -3 5 C-4.11634152 6.65051288 -4.11634152 6.65051288 -5.125 8.5625 C-5.74375 9.696875 -6.3625 10.83125 -7 12 C-8 9 -8 9 -7.3125 6.5625 C-5.69154929 3.39778671 -3.8541784 0 0 0 Z " fill="#2C302F" transform="translate(357,1172)"/>
<path d="M0 0 C-4.51818443 1.76319392 -8.16504171 2.18245126 -13 2 C-13.99 2 -14.98 2 -16 2 C-16.33 1.34 -16.66 0.68 -17 0 C-15.80375 0.020625 -14.6075 0.04125 -13.375 0.0625 C-10.67254511 0.07206621 -8.37588291 -0.10598215 -5.6875 -0.5625 C-3 -1 -3 -1 0 0 Z " fill="#1A1C1A" transform="translate(580,284)"/>
<path d="M0 0 C0 3 0 3 -1.3125 4.60546875 C-1.869375 5.12753906 -2.42625 5.64960938 -3 6.1875 C-3.556875 6.71730469 -4.11375 7.24710937 -4.6875 7.79296875 C-5.120625 8.19128906 -5.55375 8.58960938 -6 9 C-7.32 8.34 -8.64 7.68 -10 7 C-8.35 6.67 -6.7 6.34 -5 6 C-5 5.01 -5 4.02 -5 3 C-2.5 1.3125 -2.5 1.3125 0 0 Z " fill="#1A1B19" transform="translate(707,297)"/>
<path d="M0 0 C0.66 0.33 1.32 0.66 2 1 C1.67 2.32 1.34 3.64 1 5 C0.443125 5.12375 -0.11375 5.2475 -0.6875 5.375 C-3.22114364 6.05976855 -5.57921032 6.99133763 -8 8 C-8 7.34 -8 6.68 -8 6 C-6.02678947 4.6273318 -4.02456848 3.29572383 -2 2 C-1.34 1.34 -0.68 0.68 0 0 Z " fill="#40433D" transform="translate(589,17)"/>
<path d="M0 0 C1.32 0.33 2.64 0.66 4 1 C3.67 1.66 3.34 2.32 3 3 C4.65 3.33 6.3 3.66 8 4 C8 4.33 8 4.66 8 5 C4.7 5 1.4 5 -2 5 C-1.34 3.35 -0.68 1.7 0 0 Z " fill="#121413" transform="translate(466,327)"/>
<path d="M0 0 C4.78504172 2.48454089 7.86077669 4.47951843 11 9 C6.02639643 7.72768281 3.32703078 5.91415386 0 2 C0 1.34 0 0.68 0 0 Z " fill="#1D1F1B" transform="translate(617,23)"/>
<path d="M0 0 C3.3125 0.1875 3.3125 0.1875 7 1 C8.9375 3.5625 8.9375 3.5625 10 6 C7.83125748 5.49396008 6.00032373 5.00016187 4 4 C4 3.34 4 2.68 4 2 C2.68 1.34 1.36 0.68 0 0 Z " fill="#2F322D" transform="translate(594,10)"/>
<path d="M0 0 C0.99 0 1.98 0 3 0 C2.875 2.25 2.875 2.25 2 5 C-1.0625 7.3125 -1.0625 7.3125 -4 9 C-2.80100302 5.9168649 -1.52299523 2.93720508 0 0 Z " fill="#1B1D1A" transform="translate(694,333)"/>
<path d="M0 0 C-1.5830577 4.2742558 -4.50568404 6.26531794 -8 9 C-6.68994234 5.06982701 -4.75047804 0 0 0 Z " fill="#1E1C19" transform="translate(382,1141)"/>
<path d="M0 0 C0.66 0.33 1.32 0.66 2 1 C1.67 2.32 1.34 3.64 1 5 C-0.98 5.33 -2.96 5.66 -5 6 C-3.63016497 2.83884224 -3.0109362 2.0072908 0 0 Z " fill="#10120F" transform="translate(597,345)"/>
<path d="M0 0 C2.31 0 4.62 0 7 0 C7 0.66 7 1.32 7 2 C4.03 2.66 1.06 3.32 -2 4 C-1.34 2.68 -0.68 1.36 0 0 Z " fill="#41433E" transform="translate(565,0)"/>
<path d="M0 0 C0.66 0.66 1.32 1.32 2 2 C1.67 2.66 1.34 3.32 1 4 C-0.98 4 -2.96 4 -5 4 C-4.67 3.01 -4.34 2.02 -4 1 C-2.0625 0.1875 -2.0625 0.1875 0 0 Z " fill="#161815" transform="translate(712,326)"/>
<path d="M0 0 C2.31 0 4.62 0 7 0 C7.33 0.99 7.66 1.98 8 3 C5.36 2.67 2.72 2.34 0 2 C0 1.34 0 0.68 0 0 Z " fill="#1E201D" transform="translate(563,245)"/>
<path d="M0 0 C0.66 0 1.32 0 2 0 C1.67 1.32 1.34 2.64 1 4 C-5.625 5.25 -5.625 5.25 -9 3 C-4.545 2.505 -4.545 2.505 0 2 C0 1.34 0 0.68 0 0 Z " fill="#1F211C" transform="translate(550,76)"/>
<path d="M0 0 C0.66 0.99 1.32 1.98 2 3 C1.25 6.625 1.25 6.625 0 10 C-0.99 10.495 -0.99 10.495 -2 11 C-1.85892253 9.54119891 -1.71197585 8.08296449 -1.5625 6.625 C-1.48128906 5.81289063 -1.40007813 5.00078125 -1.31640625 4.1640625 C-1 2 -1 2 0 0 Z " fill="#22241F" transform="translate(547,52)"/>
<path d="M0 0 C5.75 1.625 5.75 1.625 8 5 C5.69 4.67 3.38 4.34 1 4 C0.67 2.68 0.34 1.36 0 0 Z " fill="#1F231E" transform="translate(593,6)"/>
<path d="M0 0 C0.99 0.33 1.98 0.66 3 1 C2.34 1 1.68 1 1 1 C1 2.65 1 4.3 1 6 C-0.32 6.33 -1.64 6.66 -3 7 C-3 5.68 -3 4.36 -3 3 C-2.34 3 -1.68 3 -1 3 C-0.67 2.01 -0.34 1.02 0 0 Z " fill="#2F312C" transform="translate(560,0)"/>
<path d="M0 0 C2.97 0.33 5.94 0.66 9 1 C5 3 5 3 2 3 C1.34 2.67 0.68 2.34 0 2 C0 1.34 0 0.68 0 0 Z " fill="#282A27" transform="translate(612,324)"/>
<path d="M0 0 C0 0.99 0 1.98 0 3 C-0.99 3.66 -1.98 4.32 -3 5 C-3.99 4.67 -4.98 4.34 -6 4 C-3.94766315 1.7522025 -2.99332739 0.9977758 0 0 Z M-9 5 C-6 6 -6 6 -6 6 Z " fill="#3D4039" transform="translate(589,23)"/>
<path d="M0 0 C0.99 0.33 1.98 0.66 3 1 C3 1.66 3 2.32 3 3 C3.66 3 4.32 3 5 3 C4.67 4.32 4.34 5.64 4 7 C2 5.1875 2 5.1875 0 3 C0 2.01 0 1.02 0 0 Z " fill="#2A2C27" transform="translate(614,22)"/>
<path d="M0 0 C2.97 0.495 2.97 0.495 6 1 C6 1.66 6 2.32 6 3 C3.36 3 0.72 3 -2 3 C-1.34 2.67 -0.68 2.34 0 2 C0 1.34 0 0.68 0 0 Z " fill="#191B18" transform="translate(669,321)"/>
<path d="M0 0 C0 0.99 0 1.98 0 3 C-2.5 5.1875 -2.5 5.1875 -5 7 C-5 6.01 -5 5.02 -5 4 C-4.01 3.67 -3.02 3.34 -2 3 C-2 2.34 -2 1.68 -2 1 C-1.34 0.67 -0.68 0.34 0 0 Z " fill="#171916" transform="translate(624,292)"/>
<path d="M0 0 C1.32 0 2.64 0 4 0 C3.6875 1.9375 3.6875 1.9375 3 4 C2.01 4.33 1.02 4.66 0 5 C0 3.35 0 1.7 0 0 Z " fill="#161815" transform="translate(540,242)"/>
</svg>
